# xmcd
#
# Track frame offsets:
#	150
#	6695
#	29642
#	52800
#	78302
#	101852
#	125565
#	159727
#	185682
#	205445
#	243372
#
# Disc length: 3598 seconds
#
# Revision: 1
# Processed by: cddbd v1.5.1PL0 Copyright (c) Steve Scherf et al.
# Submitted via: CDex 1.50Beta5
#
DISCID=9d0e0c0b
DTITLE=Muro - Peligro Inminente
DYEAR=1900
DGENRE=
TTITLE0=CO2
TTITLE1=Espa将ミa va Bien
TTITLE2=Aqu将ソ Huele a Muerto
TTITLE3=Fan将。tico
TTITLE4=Peligro Inminente
TTITLE5=Cierra Tu Mente
TTITLE6=Pesadilla
TTITLE7=Bendito Pecado
TTITLE8=Ella, la m将。s Bella
TTITLE9=Gracias por Nada
TTITLE10=Mirada Asesina
EXTD=
EXTT0=
EXTT1=
EXTT2=
EXTT3=
EXTT4=
EXTT5=
EXTT6=
EXTT7=
EXTT8=
EXTT9=
EXTT10=
PLAYORDER=
